<svg width="96" height="96" viewBox="0 0 96 96" fill="none" xmlns="http://www.w3.org/2000/svg">
  <defs>
    <linearGradient id="g" x1="10" y1="10" x2="86" y2="86" gradientUnits="userSpaceOnUse">
      <stop stop-color="#0EA5E9"/>
      <stop offset="1" stop-color="#2563EB"/>
    </linearGradient>
  </defs>
  <circle cx="48" cy="48" r="44" fill="url(#g)" opacity="0.15"/>
  <path d="M72 52c-6 14-24 22-38 16-10-4-15-16-10-26 5-11 18-15 30-12 8 2 14 6 18 12"
        stroke="url(#g)" stroke-width="8" stroke-linecap="round" stroke-linejoin="round"/>
  <path d="M24 44c6-14 24-22 38-16 10 4 15 16 10 26-5 11-18 15-30 12-8-2-14-6-18-12"
        stroke="url(#g)" stroke-width="8" stroke-linecap="round" stroke-linejoin="round" opacity="0.9"/>
</svg>
